<svg width="1954" height="447" viewBox="0 0 1954 447" fill="none" xmlns="http://www.w3.org/2000/svg">
<path d="M1132.02 327.723C1125.16 345.156 1118.84 362.826 1111.34 379.979C1086.19 437.467 1032.69 459.363 974.083 436.344C966.395 433.324 959.09 429.253 951.821 425.279C948.477 423.451 945.65 420.679 942.12 417.977C953.578 393.464 964.791 369.478 976.238 344.991C985.687 350.063 994.014 355.856 1003.24 358.982C1008.63 360.805 1015.45 358.36 1021.63 357.835C1020.84 353.003 1020.94 347.806 1019.12 343.394C997.887 291.707 976.375 240.134 954.897 188.547C953.486 185.157 951.751 181.903 947.988 179.114C947.988 241.747 947.988 304.38 947.988 366.738C924.392 372.084 860.179 369.489 852.681 363.197C792.586 393.636 703.699 362.313 692.937 264.986C693.056 253.758 693.287 244.174 693.518 234.59C698.199 219.196 700.789 202.745 707.943 188.602C731.797 141.441 786.918 119.658 838.849 135.168C842.964 136.397 847.076 137.637 852.803 139.356C852.803 112.799 852.803 87.2294 852.803 61.0781C884.733 61.0781 915.218 61.0781 947.321 61.0781C947.321 85.6043 947.321 110.227 947.321 136.285C973.269 136.285 997.643 136.782 1021.98 136.027C1031.03 135.746 1035.01 138.626 1038.02 146.994C1049.06 177.65 1060.9 208.018 1073.49 241.292C1085 208.547 1095.9 178.663 1105.88 148.478C1108.95 139.195 1113.11 135.782 1123.32 135.914C1172.32 136.547 1221.39 134.838 1270.3 137.01C1285.48 137.684 1299.03 135.366 1313.25 132.408C1341.82 126.467 1366.87 133.643 1393.36 155.009C1413.93 137.819 1438.16 129.927 1465.38 130.623C1511.2 131.795 1547.17 161.929 1549.57 207.753C1552.34 260.505 1550.22 313.513 1550.22 367.609C1520.36 367.609 1489.56 367.609 1457.55 367.609C1457.39 364.575 1457.03 360.805 1457.01 357.033C1456.88 317.655 1456.96 278.276 1456.59 238.9C1456.49 228.016 1452.88 218.766 1439.84 217.872C1429.3 217.148 1420.97 225.004 1419.09 237.412C1418.44 241.707 1418.55 246.138 1418.55 250.507C1418.53 284.636 1418.57 318.765 1418.59 352.893C1418.59 357.646 1418.59 362.399 1418.59 368.07C1386.75 368.07 1355.89 368.07 1323.66 368.07C1323.66 342.64 1323.67 317.4 1323.66 292.16C1323.65 275.096 1323.79 258.029 1323.53 240.968C1323.29 225.228 1317.33 217.291 1306.62 217.602C1295.56 217.923 1287.45 227.225 1287.33 241.464C1287.02 278.215 1287.25 314.971 1287.25 351.725C1287.26 356.913 1287.26 362.101 1287.26 368.089C1255.45 368.089 1224.61 368.089 1192.6 368.089C1192.6 358.723 1192.6 349.669 1193.89 339.432C1199.36 338.244 1203.52 338.238 1207.94 339.364C1208.46 344.638 1208.73 348.78 1208.96 352.365C1230.57 352.365 1250.82 352.365 1271.67 352.365C1271.67 314.451 1271.31 277.724 1271.81 241.007C1272.11 218.302 1286.74 202.564 1306.28 202.223C1325.23 201.893 1338.69 216.768 1339.27 240.28C1339.91 266.521 1339.52 292.786 1339.57 319.041C1339.59 330.25 1339.57 341.46 1339.57 352.598C1361.47 352.598 1381.79 352.598 1402.94 352.598C1402.94 347.328 1402.93 343.006 1402.94 338.684C1402.98 307.615 1402.86 276.545 1403.18 245.48C1403.26 238.573 1403.92 231.36 1406.04 224.849C1410.98 209.652 1426 200.682 1442.03 202.196C1457.92 203.695 1470.38 215.012 1471.12 232.549C1472.63 267.935 1472.42 303.394 1472.9 338.822C1472.96 343.43 1472.91 348.04 1472.91 352.476C1495.1 352.476 1515.41 352.476 1536 352.476C1536 305.97 1537.69 260.419 1535.52 215.053C1533.46 171.999 1504.11 147.077 1461.18 146.473C1433.65 146.086 1411.5 157.369 1392.23 177.596C1377.68 155.829 1357.32 147.086 1332.68 146.28C1308.3 145.482 1288.33 155.56 1269.88 172.385C1269.31 164.227 1268.89 158.295 1268.4 151.372C1250.06 151.372 1232.61 151.053 1215.2 151.728C1212.69 151.826 1210.36 156.705 1206.77 159.449C1199.56 157.849 1193.51 156.171 1186.95 153.454C1165.08 152.414 1143.74 152.414 1121.55 152.414C1106 194.835 1090.31 237.646 1073.75 282.819C1071.4 277.254 1070.15 274.499 1069.07 271.68C1054.97 234.988 1041.01 198.24 1026.63 161.66C1025.12 157.805 1021.22 152.176 1018.23 152.049C998.041 151.196 977.798 151.604 956.206 151.604C983.353 216.747 1009.56 279.588 1035.73 342.448C1043.65 361.478 1031.28 378.573 1010.27 376.473C1001.03 375.549 992.073 371.668 981.791 368.795C975.593 382.707 968.954 397.61 962.441 412.23C1010.82 445.559 1069.8 430.484 1094.38 379.373C1102.5 362.482 1109.35 344.981 1117.87 327.764C1123.31 327.753 1127.67 327.738 1132.02 327.723ZM924.925 353.258C934.61 353.808 932.163 346.588 932.173 341.448C932.337 255.281 932.394 169.113 932.432 82.946C932.433 80.8876 931.952 78.829 931.668 76.5409C910.557 76.5409 890.21 76.5409 868.348 76.5409C868.348 107.455 868.348 137.738 868.348 169.671C865.156 167.497 863.735 166.646 862.443 165.631C817.483 130.342 749.892 144.198 722.277 194.328C709.061 218.319 706.606 244.15 709.775 270.681C716.738 328.985 766.506 367.384 822.754 356.167C839.107 352.906 854.17 343.173 869.47 336.561C869.782 340.434 870.26 346.372 870.816 353.277C888.575 353.277 905.532 353.277 924.925 353.258Z" fill="#06135B"/>
<path d="M692.828 233.31C693.287 244.175 693.057 253.759 692.592 263.701C678.361 357.027 574.59 409.039 490.163 355.545C472.451 344.322 459.914 324.932 444.572 307.564C441.433 300.645 438.713 295.467 435.993 290.29C421.761 241.32 428.802 196.162 463.932 158.358C501.117 118.343 548.469 108.391 599.736 122.785C651.121 137.213 681.037 173.129 690.943 225.588C691.348 227.734 691.74 229.882 692.828 233.31ZM533.789 280.546C530.792 299.78 540.868 310.74 561.341 318.01C551.912 327.585 544.3 335.316 536.051 343.693C539.546 347.939 543.563 352.819 547.417 357.501C574.381 345.363 592.359 327.828 595.327 298.43C597.261 279.278 587.796 263.599 571.906 259.089C555.081 254.313 542.431 260.833 533.789 280.546ZM588.12 205.071C598.198 189.356 597.883 174.919 587.209 163.219C578.081 153.215 562.74 150.428 549.949 156.451C537.024 162.537 530.505 176.197 533.271 191.398C537.65 215.463 564.548 223.069 588.12 205.071Z" fill="#06135B"/>
<path d="M435.131 289.811C438.712 295.469 441.432 300.647 444.168 306.676C438.94 313.353 433.861 319.337 428.426 324.979C381.304 373.897 323.731 385.257 260.97 366.285C201.899 348.428 166.569 306.473 156.682 245.107C142.392 156.407 206.494 77.0112 296.451 70.55C359.95 65.9892 411.326 86.6976 447.858 142.208C424.37 160.653 401.215 178.835 378.126 196.966C338.108 155.703 300.613 148.976 271.591 177.351C248.179 200.24 247.931 243.739 271.082 266.51C299.232 294.198 338.291 287.097 378.447 246.36C396.979 260.626 415.624 274.978 435.131 289.811ZM309.142 85.2194C304.34 85.5241 299.526 85.7048 294.737 86.1521C231.117 92.0949 180.011 140.07 171.519 201.775C162.705 265.826 196.908 325.465 255.538 348.275C318.729 372.86 391.061 353.529 426.665 301.819C411.618 290.291 396.53 278.733 381.637 267.324C337.728 305.636 290.349 308.643 259.156 275.846C231.251 246.507 231.767 195.956 259.849 167.391C284.799 142.011 338.236 130.589 380.667 175.548C395.896 163.518 411.169 151.453 426.734 139.158C397.22 100.066 357.938 85.1486 309.142 85.2194Z" fill="#06135B"/>
<path d="M1780.87 309.848C1789.53 314.843 1785.38 319.297 1781.98 324.172C1751.94 367.239 1694.68 385.244 1640.37 368.574C1577.44 349.259 1544 289.674 1558.5 222.682C1571.44 162.886 1631.62 123.095 1695.98 131.775C1771.4 141.947 1815.23 211.811 1792.09 286.817C1779.94 286.817 1767.4 286.817 1750.69 286.817C1762.65 295.921 1771.39 302.575 1780.87 309.848ZM1666.97 271.772C1704.51 271.772 1742.05 271.772 1779.18 271.772C1793.7 225.937 1767.54 172.501 1722.71 154.395C1669.57 132.932 1605.96 154.538 1581.93 202.212C1556.72 252.211 1573 314.3 1618.62 342.125C1667.39 371.878 1735.24 361 1767.11 317.544C1754.55 308.434 1741.98 299.322 1729.5 290.271C1707.62 308.978 1684.02 315.586 1657.43 303.631C1644.28 297.717 1637.32 287.042 1635.3 271.761C1646.17 271.761 1655.32 271.761 1666.97 271.772ZM1682.37 295.756C1691.04 293.776 1699.72 291.797 1708.39 289.817C1708.08 288.594 1707.78 287.37 1707.48 286.147C1699.72 286.147 1691.96 286.147 1684.2 286.147C1676.31 286.147 1668.42 286.147 1660.53 286.147C1660.34 287.501 1660.16 288.856 1659.97 290.21C1666.71 292.055 1673.45 293.899 1682.37 295.756Z" fill="#06135B"/>
<path d="M1187.46 154.494C1193.51 156.172 1199.56 157.85 1206.95 160.656C1208.13 194.445 1207.95 227.106 1206.71 259.671C1201.49 258.664 1197.35 257.751 1193.21 256.839C1193.15 233.943 1193.1 211.047 1193.77 186.342C1194 182.727 1193.49 180.92 1192.98 179.114C1191.9 181.121 1190.82 183.128 1189.74 185.135C1170.86 232.174 1151.98 279.214 1132.56 326.988C1127.67 327.738 1123.31 327.754 1117.93 326.802C1140.42 268.721 1163.94 211.608 1187.46 154.494Z" fill="#06135B"/>
<path d="M1192.97 258.044C1197.35 257.75 1201.5 258.663 1206.94 260.69C1208.09 275.053 1207.93 288.301 1206.85 301.41C1201.66 300.487 1197.4 299.705 1193.14 298.922C1193 285.698 1192.86 272.474 1192.97 258.044Z" fill="#06135B"/>
<path d="M1192.92 300.131C1197.4 299.711 1201.66 300.493 1207.06 302.617C1208.03 315.384 1207.86 326.811 1207.69 338.238C1203.52 338.243 1199.36 338.249 1194.15 338.246C1192.97 325.937 1192.83 313.635 1192.92 300.131Z" fill="#06135B"/>
<path d="M1190.74 184.734C1190.82 183.129 1191.9 181.122 1192.98 179.115C1193.49 180.922 1194 182.728 1193.96 185.108C1192.86 185.232 1192.3 184.782 1190.74 184.734Z" fill="#06135B"/>
<path d="M1207.94 339.369C1207.86 326.81 1208.03 315.384 1207.98 302.756C1207.93 288.306 1208.09 275.058 1208.01 260.79C1207.96 227.11 1208.13 194.449 1208.13 160.582C1210.36 156.709 1212.69 151.83 1215.2 151.733C1232.61 151.057 1250.06 151.376 1268.4 151.376C1268.89 158.299 1269.31 164.231 1269.88 172.389C1288.33 155.564 1308.3 145.487 1332.68 146.284C1357.32 147.091 1377.68 155.833 1392.23 177.601C1411.5 157.374 1433.65 146.09 1461.18 146.478C1504.11 147.082 1533.46 172.004 1535.52 215.057C1537.69 260.424 1536 305.975 1536 352.48C1515.41 352.48 1495.1 352.48 1472.91 352.48C1472.91 348.045 1472.96 343.435 1472.9 338.827C1472.42 303.398 1472.63 267.939 1471.12 232.554C1470.38 215.017 1457.92 203.7 1442.04 202.2C1426 200.686 1410.98 209.657 1406.04 224.853C1403.92 231.365 1403.26 238.577 1403.18 245.484C1402.86 276.55 1402.98 307.62 1402.94 338.688C1402.93 343.01 1402.94 347.332 1402.94 352.602C1381.79 352.602 1361.47 352.602 1339.57 352.602C1339.57 341.464 1339.59 330.255 1339.57 319.045C1339.52 292.791 1339.91 266.525 1339.27 240.284C1338.69 216.772 1325.23 201.897 1306.28 202.228C1286.74 202.569 1272.11 218.307 1271.81 241.012C1271.31 277.728 1271.67 314.456 1271.67 352.37C1250.82 352.37 1230.57 352.37 1208.96 352.37C1208.73 348.785 1208.46 344.643 1207.94 339.369Z" fill="#FCFCFC"/>
<path d="M923.707 353.264C905.532 353.273 888.575 353.273 870.816 353.273C870.26 346.368 869.782 340.43 869.47 336.557C854.17 343.169 839.107 352.902 822.754 356.163C766.506 367.38 716.738 328.981 709.774 270.677C706.606 244.146 709.061 218.315 722.277 194.324C749.892 144.194 817.483 130.338 862.443 165.628C863.735 166.642 865.156 167.493 868.348 169.668C868.348 137.734 868.348 107.451 868.348 76.5371C890.21 76.5371 910.557 76.5371 931.667 76.5371C931.952 78.8252 932.433 80.8837 932.432 82.9421C932.394 169.109 932.337 255.277 932.173 341.444C932.163 346.584 934.61 353.804 923.707 353.264ZM816.524 304.292C845.941 304.293 865.724 287.806 868.953 260.6C872.312 232.293 854.633 206.347 828.794 201.661C802.966 196.977 779.579 212.237 773.388 237.813C765.821 269.076 782.805 296.608 816.524 304.292Z" fill="#F6FBFC"/>
<path d="M1186.94 153.455C1163.94 211.608 1140.42 268.722 1116.84 326.798C1109.35 344.982 1102.5 362.483 1094.38 379.374C1069.8 430.485 1010.82 445.561 962.44 412.231C968.953 397.611 975.592 382.708 981.79 368.797C992.072 371.669 1001.02 375.55 1010.27 376.474C1031.28 378.574 1043.64 361.479 1035.72 342.449C1009.56 279.589 983.352 216.748 956.205 151.605C977.797 151.605 998.04 151.197 1018.23 152.05C1021.22 152.177 1025.11 157.806 1026.63 161.661C1041.01 198.241 1054.97 234.99 1069.07 271.681C1070.15 274.501 1071.4 277.255 1073.75 282.82C1090.31 237.647 1106 194.836 1121.55 152.415C1143.74 152.415 1165.08 152.415 1186.94 153.455Z" fill="#FBFCFB"/>
<path d="M534.029 279.509C542.43 260.826 555.081 254.307 571.905 259.082C587.795 263.593 597.261 279.272 595.327 298.423C592.358 327.822 574.381 345.356 547.417 357.495C543.562 352.812 539.545 347.932 536.051 343.687C544.299 335.31 551.912 327.579 561.34 318.004C540.868 310.734 530.792 299.773 534.029 279.509Z" fill="#F6FBFC"/>
<path d="M587.439 205.798C564.548 223.07 537.649 215.463 533.271 191.399C530.505 176.198 537.024 162.538 549.948 156.452C562.739 150.429 578.081 153.216 587.208 163.22C597.883 174.92 598.197 189.357 587.439 205.798Z" fill="#F8FCFC"/>
<path d="M310.417 85.1778C357.938 85.1444 397.221 100.062 426.735 139.153C411.17 151.449 395.897 163.513 380.668 175.543C338.237 130.585 284.8 142.007 259.849 167.387C231.768 195.952 231.252 246.503 259.157 275.842C290.349 308.639 337.729 305.632 381.638 267.319C396.531 278.728 411.618 290.287 426.665 301.814C391.061 353.524 318.73 372.856 255.539 348.271C196.909 325.461 162.705 265.822 171.52 201.771C180.011 140.066 231.118 92.0906 294.737 86.1479C299.526 85.7006 304.34 85.5199 310.417 85.1778Z" fill="#F6FBFC"/>
<path d="M1665.72 271.768C1655.32 271.762 1646.17 271.762 1635.3 271.762C1637.32 287.043 1644.28 297.718 1657.43 303.632C1684.02 315.587 1707.62 308.979 1729.5 290.273C1741.98 299.324 1754.55 308.435 1767.12 317.545C1735.24 361.002 1667.39 371.879 1618.62 342.126C1573 314.301 1556.72 252.212 1581.93 202.213C1605.96 154.539 1669.57 132.934 1722.71 154.396C1767.54 172.502 1793.7 225.939 1779.18 271.773C1742.05 271.773 1704.51 271.773 1665.72 271.768ZM1687.53 235.341C1698.18 235.341 1708.82 235.341 1719.56 235.341C1717.15 206.365 1701.23 192.598 1674.76 193.264C1653.2 193.807 1632.37 214.678 1635.41 235.342C1651.83 235.342 1668.37 235.342 1687.53 235.341Z" fill="#FAFBFB"/>
<path d="M815.398 304.199C782.804 296.616 765.821 269.084 773.388 237.822C779.578 212.246 802.966 196.986 828.794 201.669C854.633 206.355 872.312 232.302 868.953 260.609C865.724 287.814 845.941 304.301 815.398 304.199ZM790.203 268.102C800.091 287.006 817.035 293.875 834.427 286.03C851.148 278.488 858.535 258.341 851.589 239.225C844.925 220.888 828.274 212.256 809.833 217.58C791.664 222.826 784.059 240.761 790.203 268.102Z" fill="#06135B"/>
<path d="M1686.23 235.342C1668.37 235.343 1651.82 235.343 1635.41 235.343C1632.37 214.678 1653.2 193.808 1674.76 193.265C1701.23 192.599 1717.15 206.366 1719.56 235.342C1708.82 235.342 1698.18 235.342 1686.23 235.342ZM1672.76 209.149C1666.94 211.818 1661.13 214.488 1655.31 217.157C1655.75 217.976 1656.19 218.796 1656.63 219.616C1670.74 219.616 1684.85 219.616 1698.96 219.616C1699.23 218.001 1699.51 216.386 1699.78 214.772C1691.51 212.81 1683.24 210.849 1672.76 209.149Z" fill="#06135B"/>
<path d="M1891.94 29.7523C1901.63 45.857 1904.75 63.3581 1905.79 81.2245C1907.01 102.157 1907.11 123.155 1908.39 144.082C1909.01 154.291 1910.43 164.595 1912.87 174.519C1917.44 193.053 1928.17 201.607 1947.35 203.653C1949.3 203.861 1951.23 204.166 1953.42 204.459C1953.42 217.581 1953.42 230.36 1953.42 243.538C1952.4 243.683 1951.48 243.852 1950.54 243.943C1925.88 246.36 1914.12 256.666 1910.91 281.149C1908.65 298.362 1908.45 315.838 1907.19 333.187C1905.82 352.097 1905.97 371.309 1902.46 389.832C1895.77 425.256 1876.65 442.134 1840.6 446.081C1827.3 447.538 1813.7 446.316 1800 446.316C1800 431.346 1800 417.192 1800 403.393C1808.39 403.003 1816.54 403.103 1824.55 402.141C1836.43 400.714 1844.34 393.695 1847.21 382.295C1849.57 372.957 1851.36 363.316 1851.91 353.726C1853.22 330.82 1853.24 307.841 1854.63 284.942C1855.2 275.562 1857.31 266.138 1859.83 257.042C1863.6 243.498 1871.32 232.355 1883.82 224.332C1880.93 221.878 1878.15 219.743 1875.62 217.349C1862.63 205.042 1857.28 189.075 1855.89 172.079C1853.99 148.639 1853.66 125.076 1852.39 101.58C1851.88 92.1202 1851.23 82.5999 1849.63 73.2808C1846.24 53.6462 1836.22 45.2879 1816.2 44.6857C1811.06 44.5311 1805.9 45.106 1800.26 45.3686C1800.26 31.0317 1800.26 16.7192 1800.26 1.61364C1816.1 -0.158142 1832.22 -1.23895 1847.93 2.57941C1857.99 5.0245 1867.97 9.05684 1876.94 14.1997C1882.83 17.5848 1886.85 24.2133 1891.94 29.7523Z" fill="#06135B"/>
<path d="M61.4758 29.9574C51.791 46.0621 48.6686 63.5632 47.6254 81.4296C46.4032 102.362 46.3104 123.36 45.0314 144.287C44.4076 154.496 42.9883 164.8 40.5448 174.724C35.9814 193.258 25.2429 201.812 6.06841 203.858C4.12089 204.066 2.1838 204.371 0.000128843 204.664C0.000128843 217.786 0.000128843 230.565 0.000128843 243.743C1.01609 243.888 1.94094 244.057 2.87337 244.148C27.538 246.565 39.2976 256.871 42.511 281.354C44.7703 298.567 44.9694 316.043 46.2277 333.392C47.5992 352.302 47.4527 371.514 50.9534 390.037C57.6483 425.461 76.767 442.34 112.814 446.286C126.119 447.743 139.72 446.522 153.418 446.522C153.418 431.551 153.418 417.397 153.418 403.598C145.023 403.208 136.88 403.308 128.866 402.346C116.984 400.919 109.073 393.9 106.203 382.5C103.852 373.162 102.061 363.521 101.512 353.931C100.202 331.025 100.175 308.046 98.7891 285.147C98.2214 275.767 96.1126 266.343 93.585 257.247C89.8217 243.703 82.096 232.56 69.5938 224.537C72.4898 222.084 75.2665 219.948 77.7941 217.554C90.7834 205.247 96.1399 189.281 97.5237 172.284C99.4322 148.844 99.7534 125.281 101.025 101.785C101.537 92.3253 102.184 82.805 103.79 73.4859C107.173 53.8512 117.193 45.493 137.218 44.8907C142.357 44.7362 147.519 45.3111 153.16 45.5736C153.16 31.2368 153.16 16.9243 153.16 1.81872C137.322 0.0469361 121.196 -1.03387 105.489 2.78449C95.4307 5.22958 85.443 9.26192 76.4824 14.4048C70.5843 17.7899 66.5706 24.4184 61.4758 29.9574Z" fill="#06135B"/>
</svg>
